<mxfile host="app.diagrams.net" modified="2022-08-05T21:19:51.088Z" agent="5.0 (Windows NT 10.0; Win64; x64) AppleWebKit/537.36 (KHTML, like Gecko) Chrome/103.0.0.0 Safari/537.36" etag="v1O5eMQyiVjWwgv-On5Q" version="20.2.3" type="github">
  <diagram id="NwxUfEqiwa_Y5UlRNrIc" name="Page-1">
    <mxGraphModel dx="3770" dy="1323" grid="1" gridSize="10" guides="1" tooltips="1" connect="1" arrows="1" fold="1" page="1" pageScale="1" pageWidth="700" pageHeight="1000" math="0" shadow="0">
      <root>
        <mxCell id="0" />
        <mxCell id="1" parent="0" />
        <mxCell id="OHuMw8StZ-itel-z36RZ-1" value="&lt;font style=&quot;font-size: 18px;&quot;&gt;&lt;b&gt;Avalara&lt;br&gt;(Taxation System)&lt;/b&gt;&lt;/font&gt;" style="whiteSpace=wrap;html=1;aspect=fixed;" parent="1" vertex="1">
          <mxGeometry x="-126" y="222" width="160" height="160" as="geometry" />
        </mxCell>
        <mxCell id="OHuMw8StZ-itel-z36RZ-3" value="Current Implementation" style="text;html=1;strokeColor=none;fillColor=none;align=center;verticalAlign=middle;whiteSpace=wrap;rounded=0;spacing=2;fontSize=32;fontStyle=1" parent="1" vertex="1">
          <mxGeometry x="-571" y="40" width="420" height="30" as="geometry" />
        </mxCell>
        <mxCell id="OHuMw8StZ-itel-z36RZ-5" value="&lt;font style=&quot;font-size: 18px;&quot;&gt;&lt;b&gt;Recurly&lt;br&gt;(Subscriptions)&lt;br&gt;&lt;/b&gt;&lt;/font&gt;" style="whiteSpace=wrap;html=1;aspect=fixed;" parent="1" vertex="1">
          <mxGeometry x="-756" y="222" width="160" height="160" as="geometry" />
        </mxCell>
        <mxCell id="OHuMw8StZ-itel-z36RZ-12" value="SVPSEWINGBRANDSLLC" style="text;html=1;strokeColor=none;fillColor=none;align=center;verticalAlign=middle;whiteSpace=wrap;rounded=0;fontSize=15;fontStyle=1" parent="1" vertex="1">
          <mxGeometry x="-428.5" y="287" width="200" height="30" as="geometry" />
        </mxCell>
        <mxCell id="OHuMw8StZ-itel-z36RZ-14" value="CAD" style="text;html=1;align=center;verticalAlign=middle;resizable=0;points=[];autosize=1;strokeColor=none;fillColor=none;fontSize=12;rotation=0;fontStyle=1" parent="1" vertex="1">
          <mxGeometry x="-106" y="167" width="40" height="20" as="geometry" />
        </mxCell>
        <mxCell id="OHuMw8StZ-itel-z36RZ-24" value="SVPSEWINGBRANDSEUROPEBV" style="text;html=1;align=center;verticalAlign=middle;resizable=0;points=[];autosize=1;strokeColor=none;fillColor=none;fontSize=15;fontStyle=1" parent="1" vertex="1">
          <mxGeometry x="-196" y="492" width="250" height="20" as="geometry" />
        </mxCell>
        <mxCell id="OHuMw8StZ-itel-z36RZ-25" value="SVPCANADAINC" style="text;html=1;align=center;verticalAlign=middle;resizable=0;points=[];autosize=1;strokeColor=none;fillColor=none;fontSize=15;fontStyle=1" parent="1" vertex="1">
          <mxGeometry x="-141" y="107" width="140" height="20" as="geometry" />
        </mxCell>
        <mxCell id="OHuMw8StZ-itel-z36RZ-26" value="USD" style="text;html=1;align=center;verticalAlign=middle;resizable=0;points=[];autosize=1;strokeColor=none;fillColor=none;fontSize=12;fontStyle=1" parent="1" vertex="1">
          <mxGeometry x="-196" y="277" width="40" height="20" as="geometry" />
        </mxCell>
        <mxCell id="OHuMw8StZ-itel-z36RZ-31" value="NOK, DKK, SEK, EUR, GBP, AUD" style="text;html=1;align=center;verticalAlign=middle;resizable=0;points=[];autosize=1;strokeColor=none;fillColor=none;fontSize=12;fontStyle=1" parent="1" vertex="1">
          <mxGeometry x="-246" y="437" width="200" height="20" as="geometry" />
        </mxCell>
        <mxCell id="OHuMw8StZ-itel-z36RZ-36" value="&lt;font style=&quot;font-size: 18px;&quot;&gt;&lt;b&gt;Avalara&lt;br&gt;(Taxation System)&lt;/b&gt;&lt;/font&gt;" style="whiteSpace=wrap;html=1;aspect=fixed;" parent="1" vertex="1">
          <mxGeometry x="-116" y="797" width="160" height="160" as="geometry" />
        </mxCell>
        <mxCell id="OHuMw8StZ-itel-z36RZ-37" value="&lt;font style=&quot;font-size: 18px;&quot;&gt;&lt;b&gt;Recurly&lt;br&gt;(Subscriptions)&lt;br&gt;&lt;/b&gt;&lt;/font&gt;" style="whiteSpace=wrap;html=1;aspect=fixed;" parent="1" vertex="1">
          <mxGeometry x="-746" y="797" width="160" height="160" as="geometry" />
        </mxCell>
        <mxCell id="OHuMw8StZ-itel-z36RZ-40" value="SVPSEWINGBRANDSEUROPEBV" style="text;html=1;align=center;verticalAlign=middle;resizable=0;points=[];autosize=1;strokeColor=none;fillColor=none;fontSize=15;fontStyle=1" parent="1" vertex="1">
          <mxGeometry x="-211" y="1050" width="250" height="20" as="geometry" />
        </mxCell>
        <mxCell id="OHuMw8StZ-itel-z36RZ-41" value="SVPCANADAINC" style="text;html=1;align=center;verticalAlign=middle;resizable=0;points=[];autosize=1;strokeColor=none;fillColor=none;fontSize=15;fontStyle=1" parent="1" vertex="1">
          <mxGeometry x="-131" y="682" width="140" height="20" as="geometry" />
        </mxCell>
        <mxCell id="OHuMw8StZ-itel-z36RZ-48" value="New Implementation" style="text;html=1;strokeColor=none;fillColor=none;align=center;verticalAlign=middle;whiteSpace=wrap;rounded=0;spacing=2;fontSize=32;fontStyle=1" parent="1" vertex="1">
          <mxGeometry x="-596" y="630" width="420" height="30" as="geometry" />
        </mxCell>
        <mxCell id="OHuMw8StZ-itel-z36RZ-49" value="" style="endArrow=none;html=1;rounded=0;fontSize=17;fontStyle=0;strokeWidth=5;" parent="1" edge="1">
          <mxGeometry width="50" height="50" relative="1" as="geometry">
            <mxPoint x="-786" y="570" as="sourcePoint" />
            <mxPoint x="284" y="570" as="targetPoint" />
          </mxGeometry>
        </mxCell>
        <mxCell id="OHuMw8StZ-itel-z36RZ-51" value="SVPSEWINGBRANDSLLC" style="text;html=1;strokeColor=none;fillColor=none;align=center;verticalAlign=middle;whiteSpace=wrap;rounded=0;fontSize=15;fontStyle=1" parent="1" vertex="1">
          <mxGeometry x="-428.5" y="862" width="200" height="30" as="geometry" />
        </mxCell>
        <mxCell id="OHuMw8StZ-itel-z36RZ-52" value="USD" style="text;html=1;align=center;verticalAlign=middle;resizable=0;points=[];autosize=1;strokeColor=none;fillColor=none;fontSize=12;fontStyle=1" parent="1" vertex="1">
          <mxGeometry x="-191" y="857" width="40" height="20" as="geometry" />
        </mxCell>
        <mxCell id="OHuMw8StZ-itel-z36RZ-54" value="USD" style="text;html=1;align=center;verticalAlign=middle;resizable=0;points=[];autosize=1;strokeColor=none;fillColor=none;fontSize=12;fontStyle=1" parent="1" vertex="1">
          <mxGeometry x="-526" y="850" width="40" height="20" as="geometry" />
        </mxCell>
        <mxCell id="OHuMw8StZ-itel-z36RZ-55" value="CAD" style="text;html=1;align=center;verticalAlign=middle;resizable=0;points=[];autosize=1;strokeColor=none;fillColor=none;fontSize=12;fontStyle=1" parent="1" vertex="1">
          <mxGeometry x="-56" y="740" width="40" height="20" as="geometry" />
        </mxCell>
        <mxCell id="OHuMw8StZ-itel-z36RZ-56" value="" style="endArrow=classic;html=1;rounded=0;fontSize=15;exitX=1;exitY=0.5;exitDx=0;exitDy=0;entryX=0;entryY=0.5;entryDx=0;entryDy=0;" parent="1" source="OHuMw8StZ-itel-z36RZ-37" target="OHuMw8StZ-itel-z36RZ-51" edge="1">
          <mxGeometry width="50" height="50" relative="1" as="geometry">
            <mxPoint x="-546" y="930" as="sourcePoint" />
            <mxPoint x="-496" y="880" as="targetPoint" />
          </mxGeometry>
        </mxCell>
        <mxCell id="OHuMw8StZ-itel-z36RZ-57" value="" style="endArrow=classic;html=1;rounded=0;fontSize=15;exitX=1;exitY=0.5;exitDx=0;exitDy=0;" parent="1" source="OHuMw8StZ-itel-z36RZ-5" edge="1">
          <mxGeometry width="50" height="50" relative="1" as="geometry">
            <mxPoint x="-526" y="302" as="sourcePoint" />
            <mxPoint x="-426" y="302" as="targetPoint" />
          </mxGeometry>
        </mxCell>
        <mxCell id="OHuMw8StZ-itel-z36RZ-58" value="USD, CAD, NOK, DKK,&lt;br&gt;SEK, EUR, GBP, AUD" style="text;html=1;align=center;verticalAlign=middle;resizable=0;points=[];autosize=1;strokeColor=none;fillColor=none;fontSize=12;fontStyle=1" parent="1" vertex="1">
          <mxGeometry x="-576" y="262" width="140" height="30" as="geometry" />
        </mxCell>
        <mxCell id="OHuMw8StZ-itel-z36RZ-59" value="NOK, DKK, SEK, EUR, GBP, AUD" style="text;html=1;align=center;verticalAlign=middle;resizable=0;points=[];autosize=1;strokeColor=none;fillColor=none;fontSize=12;fontStyle=1" parent="1" vertex="1">
          <mxGeometry x="-236" y="990" width="200" height="20" as="geometry" />
        </mxCell>
        <mxCell id="OHuMw8StZ-itel-z36RZ-61" value="" style="endArrow=classic;html=1;rounded=0;fontSize=15;entryX=-0.007;entryY=0.5;entryDx=0;entryDy=0;entryPerimeter=0;" parent="1" target="OHuMw8StZ-itel-z36RZ-41" edge="1">
          <mxGeometry width="50" height="50" relative="1" as="geometry">
            <mxPoint x="-666" y="790" as="sourcePoint" />
            <mxPoint x="-666" y="690" as="targetPoint" />
            <Array as="points">
              <mxPoint x="-666" y="692" />
            </Array>
          </mxGeometry>
        </mxCell>
        <mxCell id="OHuMw8StZ-itel-z36RZ-62" value="CAD" style="text;html=1;align=center;verticalAlign=middle;resizable=0;points=[];autosize=1;strokeColor=none;fillColor=none;fontSize=12;fontStyle=1" parent="1" vertex="1">
          <mxGeometry x="-666" y="740" width="40" height="20" as="geometry" />
        </mxCell>
        <mxCell id="OHuMw8StZ-itel-z36RZ-63" value="" style="endArrow=classic;html=1;rounded=0;fontSize=15;entryX=1;entryY=0.5;entryDx=0;entryDy=0;exitX=0;exitY=0.5;exitDx=0;exitDy=0;" parent="1" source="OHuMw8StZ-itel-z36RZ-36" target="OHuMw8StZ-itel-z36RZ-51" edge="1">
          <mxGeometry width="50" height="50" relative="1" as="geometry">
            <mxPoint x="-126" y="910" as="sourcePoint" />
            <mxPoint x="-166" y="910" as="targetPoint" />
          </mxGeometry>
        </mxCell>
        <mxCell id="OHuMw8StZ-itel-z36RZ-64" value="" style="endArrow=classic;html=1;rounded=0;fontSize=15;exitX=1;exitY=0.5;exitDx=0;exitDy=0;entryX=0;entryY=0.5;entryDx=0;entryDy=0;" parent="1" source="OHuMw8StZ-itel-z36RZ-12" target="OHuMw8StZ-itel-z36RZ-1" edge="1">
          <mxGeometry width="50" height="50" relative="1" as="geometry">
            <mxPoint x="-176" y="332" as="sourcePoint" />
            <mxPoint x="-176" y="392" as="targetPoint" />
          </mxGeometry>
        </mxCell>
        <mxCell id="OHuMw8StZ-itel-z36RZ-65" value="" style="endArrow=classic;html=1;rounded=0;fontSize=15;entryX=0.381;entryY=-0.006;entryDx=0;entryDy=0;entryPerimeter=0;" parent="1" target="OHuMw8StZ-itel-z36RZ-1" edge="1">
          <mxGeometry width="50" height="50" relative="1" as="geometry">
            <mxPoint x="-65" y="132" as="sourcePoint" />
            <mxPoint x="-16" y="132" as="targetPoint" />
          </mxGeometry>
        </mxCell>
        <mxCell id="OHuMw8StZ-itel-z36RZ-66" value="" style="endArrow=classic;html=1;rounded=0;fontSize=15;entryX=0.6;entryY=-0.1;entryDx=0;entryDy=0;entryPerimeter=0;exitX=0.5;exitY=1;exitDx=0;exitDy=0;" parent="1" source="OHuMw8StZ-itel-z36RZ-1" target="OHuMw8StZ-itel-z36RZ-24" edge="1">
          <mxGeometry width="50" height="50" relative="1" as="geometry">
            <mxPoint x="-45.960000000000036" y="392" as="sourcePoint" />
            <mxPoint x="-46" y="481.03999999999996" as="targetPoint" />
          </mxGeometry>
        </mxCell>
        <mxCell id="OHuMw8StZ-itel-z36RZ-67" value="" style="endArrow=classic;html=1;rounded=0;fontSize=15;exitX=0.5;exitY=1.05;exitDx=0;exitDy=0;exitPerimeter=0;entryX=0.344;entryY=-0.019;entryDx=0;entryDy=0;entryPerimeter=0;" parent="1" source="OHuMw8StZ-itel-z36RZ-41" target="OHuMw8StZ-itel-z36RZ-36" edge="1">
          <mxGeometry width="50" height="50" relative="1" as="geometry">
            <mxPoint x="-61.460000000000036" y="707.96" as="sourcePoint" />
            <mxPoint x="-61" y="810" as="targetPoint" />
          </mxGeometry>
        </mxCell>
        <mxCell id="OHuMw8StZ-itel-z36RZ-68" value="" style="endArrow=classic;html=1;rounded=0;fontSize=15;exitX=0.5;exitY=1.05;exitDx=0;exitDy=0;exitPerimeter=0;entryX=0.344;entryY=-0.019;entryDx=0;entryDy=0;entryPerimeter=0;" parent="1" edge="1">
          <mxGeometry width="50" height="50" relative="1" as="geometry">
            <mxPoint x="-37" y="959.04" as="sourcePoint" />
            <mxPoint x="-36.960000000000036" y="1050" as="targetPoint" />
          </mxGeometry>
        </mxCell>
        <mxCell id="OHuMw8StZ-itel-z36RZ-69" value="" style="endArrow=classic;html=1;rounded=0;fontSize=15;exitX=0.438;exitY=1.019;exitDx=0;exitDy=0;exitPerimeter=0;" parent="1" source="OHuMw8StZ-itel-z36RZ-37" edge="1">
          <mxGeometry width="50" height="50" relative="1" as="geometry">
            <mxPoint x="-676" y="1040" as="sourcePoint" />
            <mxPoint x="-216" y="1060" as="targetPoint" />
            <Array as="points">
              <mxPoint x="-676" y="1060" />
            </Array>
          </mxGeometry>
        </mxCell>
        <mxCell id="OHuMw8StZ-itel-z36RZ-70" value="NOK, DKK, SEK, EUR, GBP, AUD" style="text;html=1;align=center;verticalAlign=middle;resizable=0;points=[];autosize=1;strokeColor=none;fillColor=none;fontSize=12;fontStyle=1" parent="1" vertex="1">
          <mxGeometry x="-586" y="1030" width="200" height="20" as="geometry" />
        </mxCell>
        <mxCell id="OHuMw8StZ-itel-z36RZ-71" value="&lt;b&gt;Save only&lt;/b&gt;" style="ellipse;whiteSpace=wrap;html=1;aspect=fixed;fontSize=15;" parent="1" vertex="1">
          <mxGeometry x="204" y="262" width="80" height="80" as="geometry" />
        </mxCell>
        <mxCell id="OHuMw8StZ-itel-z36RZ-72" value="Save&lt;br&gt;&amp;amp;&lt;br&gt;Commit" style="ellipse;whiteSpace=wrap;html=1;aspect=fixed;fontSize=15;fontStyle=1" parent="1" vertex="1">
          <mxGeometry x="204" y="827" width="80" height="80" as="geometry" />
        </mxCell>
        <mxCell id="OHuMw8StZ-itel-z36RZ-73" value="" style="endArrow=classic;html=1;rounded=0;fontSize=15;exitX=1.019;exitY=0.394;exitDx=0;exitDy=0;exitPerimeter=0;entryX=-0.037;entryY=0.425;entryDx=0;entryDy=0;entryPerimeter=0;" parent="1" source="OHuMw8StZ-itel-z36RZ-36" target="OHuMw8StZ-itel-z36RZ-72" edge="1">
          <mxGeometry width="50" height="50" relative="1" as="geometry">
            <mxPoint x="74" y="910" as="sourcePoint" />
            <mxPoint x="194" y="860" as="targetPoint" />
          </mxGeometry>
        </mxCell>
        <mxCell id="OHuMw8StZ-itel-z36RZ-74" value="" style="endArrow=classic;html=1;rounded=0;fontSize=15;exitX=1;exitY=0.5;exitDx=0;exitDy=0;" parent="1" source="OHuMw8StZ-itel-z36RZ-1" target="OHuMw8StZ-itel-z36RZ-71" edge="1">
          <mxGeometry width="50" height="50" relative="1" as="geometry">
            <mxPoint x="64" y="342" as="sourcePoint" />
            <mxPoint x="114" y="292" as="targetPoint" />
          </mxGeometry>
        </mxCell>
      </root>
    </mxGraphModel>
  </diagram>
</mxfile>
